<svg version="1.1" id="Layer_1" xmlns="http://www.w3.org/2000/svg" xmlns:xlink="http://www.w3.org/1999/xlink" x="0px" y="0px" viewBox="0 0 84 84" style="enable-background:new 0 0 84 84;" xml:space="preserve"><path d="M66,36c-9.9,0-18-8.1-18-18S56.1,0,66,0s18,8.1,18,18S75.9,36,66,36z M18,84C8.1,84,0,75.9,0,66s8.1-18,18-18s18,8.1,18,18&#10;    S27.9,84,18,84z M18,36C8.1,36,0,27.9,0,18S8.1,0,18,0s18,8.1,18,18S27.9,36,18,36z M66,48c9.9,0,18,8.1,18,18s-8.1,18-18,18&#10;    s-18-8.1-18-18S56.1,48,66,48z"/></svg>